HIERARCHY
ROOT mixamorig:Hips
{
	OFFSET -0.000008 104.274872 1.554316
	CHANNELS 6 Xposition Yposition Zposition Xrotation Yrotation Zrotation
	JOINT mixamorig:Spine
	{
		OFFSET -0.000005 10.181595 0.131519
		CHANNELS 6 Xposition Yposition Zposition Xrotation Yrotation Zrotation
		JOINT mixamorig:Spine1
		{
			OFFSET -0.000000 9.893959 -1.470707
			CHANNELS 6 Xposition Yposition Zposition Xrotation Yrotation Zrotation
			JOINT mixamorig:Spine2
			{
				OFFSET -0.000000 9.220757 -1.370641
				CHANNELS 6 Xposition Yposition Zposition Xrotation Yrotation Zrotation
				JOINT mixamorig:Neck
				{
					OFFSET 0.000001 16.740417 -2.049036
					CHANNELS 6 Xposition Yposition Zposition Xrotation Yrotation Zrotation
					JOINT mixamorig:Head
					{
						OFFSET 0.000000 9.617874 1.685006
						CHANNELS 6 Xposition Yposition Zposition Xrotation Yrotation Zrotation
						JOINT mixamorig:HeadTop_End
						{
							OFFSET 0.000002 22.037354 7.501101
							CHANNELS 6 Xposition Yposition Zposition Xrotation Yrotation Zrotation
							End Site
							{
								OFFSET 0.000168 2310.654297 -282.823242
							}
						}
					}
				}
				JOINT mixamorig:RightShoulder
				{
					OFFSET -4.569970 11.014908 -2.160885
					CHANNELS 6 Xposition Yposition Zposition Xrotation Yrotation Zrotation
					JOINT mixamorig:RightArm
					{
						OFFSET -10.592851 -0.524811 -2.232101
						CHANNELS 6 Xposition Yposition Zposition Xrotation Yrotation Zrotation
						JOINT mixamorig:RightForeArm
						{
							OFFSET -27.841511 0.000031 -0.000004
							CHANNELS 6 Xposition Yposition Zposition Xrotation Yrotation Zrotation
							JOINT mixamorig:RightHand
							{
								OFFSET -28.328831 -0.000015 0.000015
								CHANNELS 6 Xposition Yposition Zposition Xrotation Yrotation Zrotation
								JOINT mixamorig:RightHandThumb1
								{
									OFFSET -2.464806 -1.573990 2.681852
									CHANNELS 6 Xposition Yposition Zposition Xrotation Yrotation Zrotation
									JOINT mixamorig:RightHandThumb2
									{
										OFFSET -3.215179 -1.872803 1.924282
										CHANNELS 6 Xposition Yposition Zposition Xrotation Yrotation Zrotation
										JOINT mixamorig:RightHandThumb3
										{
											OFFSET -2.654831 -1.527969 1.512609
											CHANNELS 6 Xposition Yposition Zposition Xrotation Yrotation Zrotation
											JOINT mixamorig:RightHandThumb4
											{
												OFFSET -2.018814 -1.152008 1.108052
												CHANNELS 6 Xposition Yposition Zposition Xrotation Yrotation Zrotation
												End Site
												{
													OFFSET -188.809540 -114.533607 132.431396
												}
											}
										}
									}
								}
								JOINT mixamorig:RightHandIndex1
								{
									OFFSET -9.108284 -0.517868 2.259835
									CHANNELS 6 Xposition Yposition Zposition Xrotation Yrotation Zrotation
									JOINT mixamorig:RightHandIndex2
									{
										OFFSET -3.699989 0.000000 0.001215
										CHANNELS 6 Xposition Yposition Zposition Xrotation Yrotation Zrotation
										JOINT mixamorig:RightHandIndex3
										{
											OFFSET -2.850006 0.000031 -0.000522
											CHANNELS 6 Xposition Yposition Zposition Xrotation Yrotation Zrotation
											JOINT mixamorig:RightHandIndex4
											{
												OFFSET -2.772186 -0.000015 -0.000020
												CHANNELS 6 Xposition Yposition Zposition Xrotation Yrotation Zrotation
												End Site
												{
													OFFSET -277.218445 0.000000 -0.050231
												}
											}
										}
									}
								}
								JOINT mixamorig:RightHandMiddle1
								{
									OFFSET -9.532516 -0.000031 -0.000023
									CHANNELS 6 Xposition Yposition Zposition Xrotation Yrotation Zrotation
									JOINT mixamorig:RightHandMiddle2
									{
										OFFSET -3.700005 -0.000015 0.003713
										CHANNELS 6 Xposition Yposition Zposition Xrotation Yrotation Zrotation
										JOINT mixamorig:RightHandMiddle3
										{
											OFFSET -2.949974 0.000015 -0.002054
											CHANNELS 6 Xposition Yposition Zposition Xrotation Yrotation Zrotation
											JOINT mixamorig:RightHandMiddle4
											{
												OFFSET -2.946640 0.000000 -0.000156
												CHANNELS 6 Xposition Yposition Zposition Xrotation Yrotation Zrotation
												End Site
												{
													OFFSET -294.664337 0.000000 -0.113670
												}
											}
										}
									}
								}
								JOINT mixamorig:RightHandRing1
								{
									OFFSET -9.103600 -0.043076 -1.865134
									CHANNELS 6 Xposition Yposition Zposition Xrotation Yrotation Zrotation
									JOINT mixamorig:RightHandRing2
									{
										OFFSET -3.379288 0.000000 -0.001055
										CHANNELS 6 Xposition Yposition Zposition Xrotation Yrotation Zrotation
										JOINT mixamorig:RightHandRing3
										{
											OFFSET -2.889687 -0.000015 0.000379
											CHANNELS 6 Xposition Yposition Zposition Xrotation Yrotation Zrotation
											JOINT mixamorig:RightHandRing4
											{
												OFFSET -2.638809 -0.000015 0.000941
												CHANNELS 6 Xposition Yposition Zposition Xrotation Yrotation Zrotation
												End Site
												{
													OFFSET -263.880371 0.000000 0.516020
												}
											}
										}
									}
								}
								JOINT mixamorig:RightHandPinky1
								{
									OFFSET -8.076683 -0.486710 -3.806280
									CHANNELS 6 Xposition Yposition Zposition Xrotation Yrotation Zrotation
									JOINT mixamorig:RightHandPinky2
									{
										OFFSET -3.600014 -0.000015 -0.003747
										CHANNELS 6 Xposition Yposition Zposition Xrotation Yrotation Zrotation
										JOINT mixamorig:RightHandPinky3
										{
											OFFSET -2.099983 0.000000 -0.005739
											CHANNELS 6 Xposition Yposition Zposition Xrotation Yrotation Zrotation
											JOINT mixamorig:RightHandPinky4
											{
												OFFSET -2.115768 -0.000031 -0.003680
												CHANNELS 6 Xposition Yposition Zposition Xrotation Yrotation Zrotation
												End Site
												{
													OFFSET -211.577087 0.000000 -0.350686
												}
											}
										}
									}
								}
							}
						}
					}
				}
				JOINT mixamorig:LeftShoulder
				{
					OFFSET 4.570447 11.014725 -2.160855
					CHANNELS 6 Xposition Yposition Zposition Xrotation Yrotation Zrotation
					JOINT mixamorig:LeftArm
					{
						OFFSET 10.592371 -0.524597 -2.232119
						CHANNELS 6 Xposition Yposition Zposition Xrotation Yrotation Zrotation
						JOINT mixamorig:LeftForeArm
						{
							OFFSET 27.841532 -0.000031 0.000026
							CHANNELS 6 Xposition Yposition Zposition Xrotation Yrotation Zrotation
							JOINT mixamorig:LeftHand
							{
								OFFSET 28.328846 -0.000061 0.000022
								CHANNELS 6 Xposition Yposition Zposition Xrotation Yrotation Zrotation
								JOINT mixamorig:LeftHandThumb1
								{
									OFFSET 2.466141 -1.576172 2.681732
									CHANNELS 6 Xposition Yposition Zposition Xrotation Yrotation Zrotation
									JOINT mixamorig:LeftHandThumb2
									{
										OFFSET 3.217812 -1.872070 1.916482
										CHANNELS 6 Xposition Yposition Zposition Xrotation Yrotation Zrotation
										JOINT mixamorig:LeftHandThumb3
										{
											OFFSET 2.656029 -1.528778 1.514513
											CHANNELS 6 Xposition Yposition Zposition Xrotation Yrotation Zrotation
											JOINT mixamorig:LeftHandThumb4
											{
												OFFSET 2.020889 -1.154053 1.115139
												CHANNELS 6 Xposition Yposition Zposition Xrotation Yrotation Zrotation
												End Site
												{
													OFFSET 190.885437 -115.081749 130.048782
												}
											}
										}
									}
								}
								JOINT mixamorig:LeftHandIndex1
								{
									OFFSET 9.109314 -0.518021 2.259871
									CHANNELS 6 Xposition Yposition Zposition Xrotation Yrotation Zrotation
									JOINT mixamorig:LeftHandIndex2
									{
										OFFSET 3.699989 0.000000 -0.000322
										CHANNELS 6 Xposition Yposition Zposition Xrotation Yrotation Zrotation
										JOINT mixamorig:LeftHandIndex3
										{
											OFFSET 2.850006 0.000000 0.000352
											CHANNELS 6 Xposition Yposition Zposition Xrotation Yrotation Zrotation
											JOINT mixamorig:LeftHandIndex4
											{
												OFFSET 2.774864 -0.000031 -0.000027
												CHANNELS 6 Xposition Yposition Zposition Xrotation Yrotation Zrotation
												End Site
												{
													OFFSET 277.486267 0.000000 -0.009857
												}
											}
										}
									}
								}
								JOINT mixamorig:LeftHandMiddle1
								{
									OFFSET 9.533394 0.000061 0.000044
									CHANNELS 6 Xposition Yposition Zposition Xrotation Yrotation Zrotation
									JOINT mixamorig:LeftHandMiddle2
									{
										OFFSET 3.699989 -0.000015 -0.000231
										CHANNELS 6 Xposition Yposition Zposition Xrotation Yrotation Zrotation
										JOINT mixamorig:LeftHandMiddle3
										{
											OFFSET 2.949997 -0.000015 -0.000059
											CHANNELS 6 Xposition Yposition Zposition Xrotation Yrotation Zrotation
											JOINT mixamorig:LeftHandMiddle4
											{
												OFFSET 2.952896 0.000031 0.000063
												CHANNELS 6 Xposition Yposition Zposition Xrotation Yrotation Zrotation
												End Site
												{
													OFFSET 295.289337 0.000000 0.022810
												}
											}
										}
									}
								}
								JOINT mixamorig:LeftHandRing1
								{
									OFFSET 9.104523 -0.042999 -1.865074
									CHANNELS 6 Xposition Yposition Zposition Xrotation Yrotation Zrotation
									JOINT mixamorig:LeftHandRing2
									{
										OFFSET 3.150009 -0.000031 0.000043
										CHANNELS 6 Xposition Yposition Zposition Xrotation Yrotation Zrotation
										JOINT mixamorig:LeftHandRing3
										{
											OFFSET 2.949982 -0.000015 0.000040
											CHANNELS 6 Xposition Yposition Zposition Xrotation Yrotation Zrotation
											JOINT mixamorig:LeftHandRing4
											{
												OFFSET 2.644348 0.000000 0.000057
												CHANNELS 6 Xposition Yposition Zposition Xrotation Yrotation Zrotation
												End Site
												{
													OFFSET 264.434631 0.000000 0.012105
												}
											}
										}
									}
								}
								JOINT mixamorig:LeftHandPinky1
								{
									OFFSET 8.077789 -0.486847 -3.806259
									CHANNELS 6 Xposition Yposition Zposition Xrotation Yrotation Zrotation
									JOINT mixamorig:LeftHandPinky2
									{
										OFFSET 3.599953 0.000031 0.014727
										CHANNELS 6 Xposition Yposition Zposition Xrotation Yrotation Zrotation
										JOINT mixamorig:LeftHandPinky3
										{
											OFFSET 2.100021 0.000015 0.007705
											CHANNELS 6 Xposition Yposition Zposition Xrotation Yrotation Zrotation
											JOINT mixamorig:LeftHandPinky4
											{
												OFFSET 2.125504 0.000031 0.007517
												CHANNELS 6 Xposition Yposition Zposition Xrotation Yrotation Zrotation
												End Site
												{
													OFFSET 212.550781 0.000000 0.625752
												}
											}
										}
									}
								}
							}
						}
					}
				}
			}
		}
	}
	JOINT mixamorig:RightUpLeg
	{
		OFFSET -8.207787 -6.751648 -1.599560
		CHANNELS 6 Xposition Yposition Zposition Xrotation Yrotation Zrotation
		JOINT mixamorig:RightLeg
		{
			OFFSET -0.000002 -44.370117 0.345942
			CHANNELS 6 Xposition Yposition Zposition Xrotation Yrotation Zrotation
			JOINT mixamorig:RightFoot
			{
				OFFSET 0.000003 -44.423679 -3.043532
				CHANNELS 6 Xposition Yposition Zposition Xrotation Yrotation Zrotation
				JOINT mixamorig:RightToeBase
				{
					OFFSET -0.000002 -8.728671 10.710558
					CHANNELS 6 Xposition Yposition Zposition Xrotation Yrotation Zrotation
					JOINT mixamorig:RightToe_End
					{
						OFFSET -0.000001 -0.000679 9.278119
						CHANNELS 6 Xposition Yposition Zposition Xrotation Yrotation Zrotation
						End Site
						{
							OFFSET 0.000000 -0.067690 927.812134
						}
					}
				}
			}
		}
	}
	JOINT mixamorig:LeftUpLeg
	{
		OFFSET 8.207793 -6.751686 -1.599556
		CHANNELS 6 Xposition Yposition Zposition Xrotation Yrotation Zrotation
		JOINT mixamorig:LeftLeg
		{
			OFFSET -0.000004 -44.370014 0.346954
			CHANNELS 6 Xposition Yposition Zposition Xrotation Yrotation Zrotation
			JOINT mixamorig:LeftFoot
			{
				OFFSET -0.000001 -44.423672 -3.044401
				CHANNELS 6 Xposition Yposition Zposition Xrotation Yrotation Zrotation
				JOINT mixamorig:LeftToeBase
				{
					OFFSET -0.000002 -8.728669 10.710558
					CHANNELS 6 Xposition Yposition Zposition Xrotation Yrotation Zrotation
					JOINT mixamorig:LeftToe_End
					{
						OFFSET -0.000003 -0.000679 9.278133
						CHANNELS 6 Xposition Yposition Zposition Xrotation Yrotation Zrotation
						End Site
						{
							OFFSET 0.000000 -0.068021 927.813477
						}
					}
				}
			}
		}
	}
}
MOTION
Frames: 3
Frame Time: 0.033333
0.000006 104.270477 1.554256 0.000010 0.000003 -0.000113 -0.000005 10.181587 0.131522 0.000001 -0.000003 0.000084 -0.000000 9.893967 -1.470711 0.000001 0.000000 -0.000000 -0.000000 9.220802 -1.370642 0.000000 -0.000000 -0.000000 0.000001 16.740433 -2.049030 0.000000 -0.000000 -0.000000 0.000000 9.617859 1.685014 0.000000 0.000000 0.000000 0.000002 22.037384 7.501101 0.000000 -0.000000 0.000000 -4.569968 11.014880 -2.160881 0.000008 0.000001 -0.000038 -10.592878 -0.524752 -2.231913 74.115838 26.580743 -20.227388 -27.841492 0.000006 0.000553 -42.553267 112.694897 60.650967 -28.328838 0.000020 0.000026 -0.000320 -0.000045 0.000005 -2.464391 -1.573828 2.682322 -45.336395 -154.933634 -4.799318 -3.215201 -1.872463 1.924590 141.055100 32.973220 410.618542 -2.654948 -1.527856 1.513057 150.988899 27.249286 -28.261474 -2.018834 -1.151999 1.108052 -0.000004 -0.000003 0.000002 -9.108387 -0.517546 2.260123 103.415976 14.260977 -18.064590 -3.700083 0.000317 0.001537 101.810759 13.049933 -15.996718 -2.850086 0.000363 -0.000244 102.514842 11.308019 -14.066905 -2.772159 -0.000017 -0.000018 -0.000000 -0.000000 -0.000002 -9.532575 0.000278 0.000275 102.744883 14.147238 -17.828197 -3.700084 0.000326 0.004029 105.724737 12.415030 -16.220676 -2.950064 0.000331 -0.001735 109.181175 11.439034 -16.028810 -2.946609 -0.000014 -0.000156 -0.000000 0.000001 -0.000000 -9.103699 -0.042776 -1.864839 103.510083 16.245673 -20.472174 -3.379339 0.000331 -0.000726 107.541410 8.913436 -12.168026 -2.889757 0.000359 0.000691 113.475786 6.729432 -10.313360 -2.638798 -0.000015 0.000938 -0.000001 -0.000000 0.000002 -8.076755 -0.486413 -3.805996 95.832082 19.284484 -21.140332 -3.600024 0.000313 -0.003473 99.639257 7.281884 -8.204539 -2.100001 0.000340 -0.005432 103.023063 2.990668 -3.495526 -2.115764 -0.000036 -0.003678 0.000001 -0.000001 -0.000005 4.570446 11.014691 -2.160851 -0.000018 0.000010 -0.000021 10.592476 -0.524544 -2.232373 47.460133 -56.186796 26.411947 27.841742 -0.000058 -0.000085 52.299964 -109.159195 69.238686 28.328833 -0.000029 0.000024 0.000020 -0.000090 -0.000000 2.466112 -1.576188 2.681883 59.122083 115.829654 -108.963183 3.217790 -1.872032 1.916515 223.386951 50.708813 78.864779 2.656010 -1.528815 1.514619 -167.469313 35.854815 101.189949 2.020879 -1.154078 1.115161 -0.000000 0.000003 0.000004 9.109215 -0.517727 2.260086 47.340799 -164.343818 145.186217 3.699897 0.000276 -0.000089 56.255019 -165.485143 153.183904 2.849941 0.000288 0.000575 57.728615 -166.740791 156.187821 2.774890 -0.000046 -0.000018 0.000004 0.000001 0.000002 9.533523 0.000170 0.000042 -203.310225 -17.749471 -285.789158 3.700014 0.000140 -0.000404 -284.431999 -9.622845 7.464909 2.950000 0.000020 -0.000173 -324.089553 1.284042 -0.415349 2.952880 -0.000016 0.000065 0.000002 0.000003 -0.000003 9.104678 -0.042809 -1.865097 -209.296886 -16.578734 -301.722404 3.149970 0.000143 -0.000144 -295.123513 6.802972 -4.325860 2.949970 0.000020 -0.000093 26.605144 17.161132 -4.086308 2.644324 0.000059 0.000056 0.000002 0.000002 -0.000003 8.077910 -0.486602 -3.806283 -30.036880 -167.129142 -132.240071 3.599937 0.000239 0.014524 -277.698853 7.101199 -5.885971 2.099949 0.000111 0.007518 53.272060 19.710239 -9.850725 2.125508 -0.000022 0.007522 -0.000001 -0.000003 0.000001 -8.207786 -6.751667 -1.599560 -0.077001 -0.000003 0.000080 -0.000002 -44.370110 0.345938 0.153719 -0.000000 -0.000000 0.000000 -44.423679 -3.043532 -0.076700 0.000000 -0.000002 -0.000006 -8.728667 10.710559 -0.000009 -0.000000 -0.000000 -0.000001 -0.000679 9.278123 0.000000 -0.000000 -0.000000 8.207792 -6.751710 -1.599556 -0.074518 -0.000003 0.000081 -0.000002 -44.370014 0.346960 0.148822 0.000002 0.000000 -0.000001 -44.423664 -3.044403 -0.074314 0.000000 -0.000002 -0.000004 -8.728671 10.710558 0.000007 -0.000000 -0.000000 0.000000 -0.000680 9.278137 -0.000000 0.000000 -0.000001 
0.000006 104.270477 1.554256 0.000010 0.000003 -0.000113 -0.000005 10.181587 0.131522 0.000001 -0.000003 0.000084 -0.000000 9.893967 -1.470711 0.000001 0.000000 -0.000000 -0.000000 9.220802 -1.370642 0.000000 -0.000000 -0.000000 0.000001 16.740433 -2.049030 0.000000 -0.000000 -0.000000 0.000000 9.617859 1.685014 0.000000 0.000000 0.000000 0.000002 22.037384 7.501101 0.000000 -0.000000 0.000000 -4.569968 11.014880 -2.160881 0.000008 0.000001 -0.000038 -10.592876 -0.524750 -2.231931 73.973797 25.558831 -19.389345 -27.841488 0.000006 0.000558 -42.254351 111.856464 59.481672 -28.328815 0.000006 0.000019 -0.000322 -0.000043 0.000005 -2.464395 -1.573830 2.682317 -44.327839 -153.668588 -2.802304 -3.215178 -1.872458 1.924602 139.751162 32.458254 413.138581 -2.654960 -1.527874 1.513067 150.149893 27.574307 -26.404572 -2.018823 -1.151989 1.108073 -0.000001 -0.000004 0.000004 -9.108387 -0.517543 2.260135 103.443229 13.722826 -17.397107 -3.700056 0.000327 0.001548 102.140705 12.629536 -15.573053 -2.850100 0.000355 -0.000216 103.115871 11.084308 -13.937237 -2.772169 -0.000018 -0.000019 -0.000001 -0.000002 -0.000001 -9.532600 0.000282 0.000284 103.217450 13.527772 -17.201167 -3.700052 0.000315 0.004033 105.884775 11.915202 -15.611478 -2.950060 0.000336 -0.001744 109.304562 11.140848 -15.648558 -2.946622 0.000014 -0.000152 0.000001 -0.000001 -0.000001 -9.103714 -0.042752 -1.864832 104.360503 15.700892 -20.088046 -3.379343 0.000313 -0.000741 107.436779 8.456352 -11.525159 -2.889752 0.000340 0.000727 113.268592 6.673117 -10.187835 -2.638805 0.000001 0.000939 -0.000001 0.000000 -0.000002 -8.076773 -0.486392 -3.805967 96.365841 19.185696 -21.225204 -3.600047 0.000294 -0.003470 100.584637 7.101383 -8.126637 -2.100007 0.000329 -0.005448 104.127532 2.853994 -3.390761 -2.115771 -0.000044 -0.003679 0.000001 0.000001 -0.000005 4.570446 11.014691 -2.160851 -0.000018 0.000010 -0.000021 10.592478 -0.524553 -2.232372 47.675813 -56.841271 26.895041 27.841734 -0.000062 -0.000108 51.844069 -110.201161 69.733820 28.328833 -0.000012 0.000037 0.000018 -0.000090 -0.000000 2.466123 -1.576176 2.681887 65.725954 118.690055 -116.195561 3.217791 -1.872028 1.916548 221.991421 49.134810 79.132325 2.655987 -1.528818 1.514634 -176.324516 34.772186 111.366555 2.020891 -1.154081 1.115140 0.000001 0.000005 0.000002 9.109198 -0.517727 2.260096 48.245970 -163.352648 143.825301 3.699921 0.000240 -0.000091 56.400195 -164.640713 151.751545 2.849920 0.000283 0.000594 59.084797 -165.814057 155.235242 2.774879 -0.000043 -0.000037 0.000007 0.000001 0.000003 9.533529 0.000187 0.000062 -204.030701 -17.925869 -286.957830 3.700026 0.000151 -0.000397 -288.834657 -8.639055 6.184875 2.950000 0.000004 -0.000152 -334.534770 1.889594 -0.426493 2.952867 -0.000033 0.000061 0.000002 0.000002 -0.000004 9.104672 -0.042803 -1.865088 -210.684480 -16.572411 -304.072044 3.149993 0.000152 -0.000128 -299.477321 9.257114 -5.408087 2.949948 0.000010 -0.000071 14.494940 19.334548 -2.482089 2.644320 0.000042 0.000056 0.000001 0.000003 -0.000001 8.077908 -0.486607 -3.806282 -31.147005 -167.052425 -133.617324 3.599929 0.000196 0.014552 -285.117996 7.961072 -5.824406 2.099946 0.000067 0.007536 40.913690 20.745696 -7.750792 2.125486 0.000002 0.007516 0.000001 -0.000003 -0.000002 -8.207786 -6.751667 -1.599560 -0.077001 -0.000003 0.000080 -0.000002 -44.370110 0.345938 0.153719 -0.000000 -0.000000 0.000000 -44.423679 -3.043532 -0.076700 0.000000 -0.000002 -0.000006 -8.728667 10.710559 -0.000009 -0.000000 -0.000000 -0.000001 -0.000679 9.278123 0.000000 -0.000000 -0.000000 8.207792 -6.751710 -1.599556 -0.074518 -0.000003 0.000081 -0.000002 -44.370014 0.346960 0.148822 0.000002 0.000000 -0.000001 -44.423664 -3.044403 -0.074314 0.000000 -0.000002 -0.000004 -8.728671 10.710558 0.000007 -0.000000 -0.000000 0.000000 -0.000680 9.278137 -0.000000 0.000000 -0.000001 
0.000006 104.270477 1.554256 0.000010 0.000003 -0.000113 -0.000005 10.181587 0.131522 0.000001 -0.000003 0.000084 -0.000000 9.893967 -1.470711 0.000001 0.000000 -0.000000 -0.000000 9.220802 -1.370642 0.000000 -0.000000 -0.000000 0.000001 16.740433 -2.049030 0.000000 -0.000000 -0.000000 0.000000 9.617859 1.685014 0.000000 0.000000 0.000000 0.000002 22.037384 7.501101 0.000000 -0.000000 0.000000 -4.569968 11.014880 -2.160881 0.000008 0.000001 -0.000038 -10.592880 -0.524753 -2.231936 73.925186 25.263335 -19.145428 -27.841494 0.000004 0.000563 -42.222857 112.494670 60.036591 -28.328817 -0.000007 0.000019 -0.000321 -0.000044 0.000006 -2.464384 -1.573829 2.682316 -44.426095 -153.699392 -3.008741 -3.215175 -1.872460 1.924599 139.664487 32.505331 414.570134 -2.654958 -1.527871 1.513074 150.829934 27.248142 -28.435066 -2.018815 -1.152016 1.108075 -0.000002 0.000000 0.000004 -9.108392 -0.517550 2.260140 103.742507 14.436127 -18.390156 -3.700085 0.000314 0.001550 102.388668 13.375661 -16.562411 -2.850092 0.000369 -0.000234 103.188142 11.701450 -14.729086 -2.772163 -0.000014 -0.000021 0.000000 0.000001 -0.000000 -9.532585 0.000270 0.000282 103.354204 14.727189 -18.748577 -3.700068 0.000319 0.004034 106.004379 12.693418 -16.667820 -2.950047 0.000331 -0.001756 109.252858 11.550761 -16.205604 -2.946623 -0.000000 -0.000158 0.000000 -0.000003 -0.000001 -9.103708 -0.042777 -1.864806 104.588330 17.088548 -21.939138 -3.379332 0.000324 -0.000759 107.615894 9.077986 -12.408247 -2.889749 0.000348 0.000721 113.126361 6.726233 -10.240632 -2.638788 0.000001 0.000941 0.000001 0.000002 0.000001 -8.076770 -0.486414 -3.805961 97.055779 20.130536 -22.537201 -3.600033 0.000292 -0.003461 100.563956 7.814401 -8.976351 -2.100001 0.000338 -0.005441 103.614591 3.245662 -3.855658 -2.115765 -0.000055 -0.003679 -0.000001 0.000001 -0.000005 4.570446 11.014691 -2.160851 -0.000018 0.000010 -0.000021 10.592482 -0.524549 -2.232374 47.389017 -57.010670 26.810740 27.841732 -0.000055 -0.000093 51.712219 -110.031411 69.407132 28.328836 -0.000012 0.000038 0.000018 -0.000087 0.000001 2.466120 -1.576170 2.681860 59.246584 116.641190 -109.510438 3.217781 -1.872022 1.916546 220.277713 49.553248 80.987541 2.655972 -1.528821 1.514635 -178.981952 33.854068 114.172015 2.020887 -1.154078 1.115146 -0.000000 0.000003 0.000004 9.109213 -0.517726 2.260086 48.251178 -163.754031 144.658380 3.699908 0.000246 -0.000084 57.598910 -164.867011 152.815975 2.849941 0.000286 0.000600 59.968214 -166.204088 156.317635 2.774877 -0.000015 -0.000028 0.000001 0.000000 0.000001 9.533530 0.000186 0.000054 -203.152926 -18.153639 -284.136634 3.700030 0.000154 -0.000389 -286.083566 -9.729524 7.326271 2.949978 0.000010 -0.000178 -326.609428 1.091762 -0.326745 2.952882 -0.000015 0.000058 0.000005 0.000002 -0.000000 9.104690 -0.042816 -1.865100 -210.206995 -17.016592 -301.993481 3.149979 0.000160 -0.000124 -294.750530 5.935455 -3.800634 2.949968 0.000046 -0.000092 27.252675 16.848849 -4.112173 2.644321 0.000048 0.000055 -0.000002 0.000001 0.000002 8.077923 -0.486610 -3.806283 -30.928333 -166.391850 -131.250541 3.599943 0.000215 0.014511 -280.056170 5.607543 -4.383203 2.099960 0.000114 0.007528 52.299486 17.868806 -8.712825 2.125516 -0.000016 0.007514 -0.000002 -0.000002 -0.000002 -8.207786 -6.751667 -1.599560 -0.077001 -0.000003 0.000080 -0.000002 -44.370110 0.345938 0.153719 -0.000000 -0.000000 0.000000 -44.423679 -3.043532 -0.076700 0.000000 -0.000002 -0.000006 -8.728667 10.710559 -0.000009 -0.000000 -0.000000 -0.000001 -0.000679 9.278123 0.000000 -0.000000 -0.000000 8.207792 -6.751710 -1.599556 -0.074518 -0.000003 0.000081 -0.000002 -44.370014 0.346960 0.148822 0.000002 0.000000 -0.000001 -44.423664 -3.044403 -0.074314 0.000000 -0.000002 -0.000004 -8.728671 10.710558 0.000007 -0.000000 -0.000000 0.000000 -0.000680 9.278137 -0.000000 0.000000 -0.000001 
